<?xml version="1.0" encoding="UTF-8" standalone="no"?>
<!-- Created with Inkscape (http://www.inkscape.org/) -->

<svg
   width="231.38046mm"
   height="49.842438mm"
   viewBox="0 0 231.38046 49.842438"
   version="1.1"
   id="svg1"
   xml:space="preserve"
   sodipodi:docname="logo-with-text.svg"
   inkscape:version="1.3 (0e150ed6c4, 2023-07-21)"
   xmlns:inkscape="http://www.inkscape.org/namespaces/inkscape"
   xmlns:sodipodi="http://sodipodi.sourceforge.net/DTD/sodipodi-0.dtd"
   xmlns="http://www.w3.org/2000/svg"
   xmlns:svg="http://www.w3.org/2000/svg"><sodipodi:namedview
     id="namedview1"
     pagecolor="#505050"
     bordercolor="#eeeeee"
     borderopacity="1"
     inkscape:showpageshadow="0"
     inkscape:pageopacity="0"
     inkscape:pagecheckerboard="0"
     inkscape:deskcolor="#505050"
     inkscape:document-units="mm"
     showguides="false"
     inkscape:zoom="2.0388588"
     inkscape:cx="437.25442"
     inkscape:cy="94.170329"
     inkscape:window-width="2560"
     inkscape:window-height="1377"
     inkscape:window-x="2552"
     inkscape:window-y="-8"
     inkscape:window-maximized="1"
     inkscape:current-layer="layer1"><sodipodi:guide
       position="16.167061,271.68969"
       orientation="0.70710678,-0.70710678"
       id="guide1"
       inkscape:locked="false" /><sodipodi:guide
       position="15.711544,271.21423"
       orientation="-0.70710678,-0.70710678"
       id="guide2"
       inkscape:locked="false" /><sodipodi:guide
       position="18.77621,272.21272"
       orientation="-0.70710678,-0.70710678"
       id="guide3"
       inkscape:locked="false" /><sodipodi:guide
       position="18.710891,270.24511"
       orientation="0.70710678,-0.70710678"
       id="guide4"
       inkscape:locked="false" /><sodipodi:guide
       position="5.4609972,257.58788"
       orientation="0,-1"
       id="guide5"
       inkscape:locked="false" /><sodipodi:guide
       position="6.8579972,260.46655"
       orientation="0,-1"
       id="guide6"
       inkscape:locked="false" /><sodipodi:guide
       position="4.0639972,260.46655"
       orientation="1,0"
       id="guide7"
       inkscape:locked="false" /><sodipodi:guide
       position="6.8579992,260.46655"
       orientation="1,0"
       id="guide8"
       inkscape:locked="false" /><sodipodi:guide
       position="28.447995,260.46655"
       orientation="1,0"
       id="guide9"
       inkscape:locked="false" /><sodipodi:guide
       position="23.869852,279.3825"
       orientation="-0.70710678,-0.70710678"
       id="guide10"
       inkscape:locked="false" /><sodipodi:guide
       position="21.88723,277.39988"
       orientation="-0.70710678,-0.70710678"
       id="guide11"
       inkscape:locked="false" /><sodipodi:guide
       position="24.346701,279.00855"
       orientation="0.70710678,-0.70710678"
       id="guide12"
       inkscape:locked="false" /><sodipodi:guide
       position="25.449173,277.82957"
       orientation="0.70710678,-0.70710678"
       id="guide13"
       inkscape:locked="false" /><sodipodi:guide
       position="60.875327,280.61689"
       orientation="0,-1"
       id="guide14"
       inkscape:locked="false" /><sodipodi:guide
       position="41.994662,280.57489"
       orientation="1,0"
       id="guide15"
       inkscape:locked="false" /><sodipodi:guide
       position="74.421994,265.46248"
       orientation="0,-1"
       id="guide16"
       inkscape:locked="false" /><sodipodi:guide
       position="165.69477,273.25076"
       orientation="0,-1"
       id="guide17"
       inkscape:locked="false" /><sodipodi:guide
       position="164.24262,275.07778"
       orientation="1,0"
       id="guide18"
       inkscape:locked="false" /></sodipodi:namedview><defs
     id="defs1" /><g
     inkscape:label="Слой 1"
     inkscape:groupmode="layer"
     id="layer1"
     transform="translate(76.866762,-126.29772)"><path
       style="fill:#3191ff;fill-opacity:1"
       d="m -76.866767,167.62171 v -41.32399 l 24.681041,24.68061 4.444292,-4.44667 v -4.73967 l -3.68935,3.68936 0.422639,0.42263 -1.982171,1.98308 -1.994205,-1.99421 1.982621,-1.98262 0.43039,0.43039 6.438742,-6.35827 v 6.94024 l 3.386667,-3.3835 -0.06331,-11.30458 -13.951671,13.88759 -1.095509,-1.10533 16.634489,-16.63449 v 15.91832 l -4.910667,4.90848 v 15.62209 h 0.677334 v 2.87867 h -2.963333 l 10e-7,-2.87867 h 0.677332 v -14.01111 l -4.445483,4.35911 -23.071517,-22.987 0.04266,36.82189 7.962891,5.89245 0.03811,-23.40969 8.255943,8.25466 4.31565,-4.31815 1.101125,1.10113 -5.459814,5.45981 -6.688289,-6.68668 -0.04294,22.83257 z m 24.299333,-12.11755 1.607932,-1.60124 0.04306,18.99733 8.001,-5.94351 v -21.10458 l 1.608666,-1.60198 v 23.31736 l -11.197166,8.55477 z m -20.235331,7.32701 h 0.592665 v -24.9339 l 12.608944,12.60809 0.467545,-0.46342 1.994205,1.99421 -2.031578,2.03157 -1.994205,-1.9942 0.465487,-0.46549 -9.901731,-9.90065 v 21.12379 h 0.59267 v 2.87867 h -2.794002 z m 119.464661,-4.95229 c -2.523369,-0.50613 -4.588319,-2.10039 -5.594365,-4.31917 -0.511283,-1.12762 -0.626488,-1.72695 -0.626488,-3.2592 0,-1.19817 0.02741,-1.49341 0.192554,-2.07434 0.603306,-2.1222 2.008987,-3.82563 3.943476,-4.77877 3.43334,-1.69164 7.786029,-0.88914 10.108575,1.86369 0.654051,0.77522 1.293958,2.04544 1.55386,3.08442 0.270125,1.07984 0.269615,2.73413 -0.0012,3.81 -0.741071,2.94433 -2.965942,5.03031 -6.043191,5.66593 -0.789688,0.16312 -2.73666,0.16721 -3.533246,0.007 z m 3.217324,-2.17585 c 1.534121,-0.39237 4.09304,-1.9574 4.099498,-5.36019 0.0021,-1.12314 -0.110962,-1.63583 -0.569633,-2.58233 -0.681469,-1.40627 -2.076463,-2.48746 -3.665579,-2.841 -0.873752,-0.19439 -2.261931,-0.22615 -3.049347,0.0364 -1.642422,0.5477 -3.082873,1.96059 -3.600946,3.56656 -0.250118,0.77534 -0.308403,2.23019 -0.122773,3.06456 0.479361,2.15464 2.09571,3.67965 4.411123,4.16186 0.511267,0.10648 1.887127,0.11025 2.497657,-0.0459 z m 96.90101,2.17762 c -1.49353,-0.25287 -2.88041,-0.86262 -4.05857,-1.80904 0.31297,-0.64981 0.61612,-1.30449 0.93787,-1.95 0.0122,-0.0172 0.18133,0.10492 0.37574,0.27133 0.50132,0.42911 1.52554,0.94065 2.41047,1.20389 0.57831,0.17203 1.01067,0.23584 1.82521,0.26936 2.49223,0.10255 3.80095,-0.60571 3.80095,-2.05701 0,-1.23903 -0.64863,-1.65939 -3.76767,-2.44172 -2.11048,-0.52936 -2.96119,-0.85173 -3.68114,-1.39495 -0.58868,-0.44419 -1.0633,-1.04142 -1.23485,-1.55388 -0.75576,-2.25753 0.27684,-4.42624 2.54592,-5.34705 1.69099,-0.68621 4.51164,-0.65207 6.4515,0.0781 0.56012,0.21083 1.42431,0.66773 1.50262,0.79445 -0.17868,0.69312 -0.49027,1.35571 -0.76417,2.01844 -1.27984,-0.80119 -2.70083,-1.21546 -4.21021,-1.2488 -1.3696,0.002 -2.29039,0.29117 -2.87001,0.90136 -0.69666,0.73341 -0.63678,1.93685 0.1253,2.51811 0.50023,0.38154 1.18842,0.63536 2.98931,1.1025 2.89032,0.74974 3.60981,1.07117 4.46468,1.99453 0.55089,0.59502 0.79986,1.18444 0.8748,2.07096 0.18879,2.23333 -1.33435,4.01345 -3.88427,4.53964 -0.93106,0.19213 -2.89631,0.21253 -3.83348,0.0398 z M -34.872101,142.68083 h 1.978828 l 6.040435,10.16946 6.06731,-10.16943 1.95776,-3e-5 0.04324,15.15497 h -2.370265 l -0.04364,-10.27931 -5.056055,8.50131 -1.209278,-0.006 -5.037242,-8.41889 -4.25e-4,10.20233 h -2.370666 z m 18.880666,0 h 1.927902 l 8.6130974,10.70315 0.0436,-10.70315 h 2.45407 v 15.15533 h -1.999619 l -8.5413834,-10.61454 -0.0436,10.61422 h -2.454061 z m 13.5466664,15.15441 6.862348,-15.15441 h 2.24028 l 6.8683136,15.15441 h -2.604962 l -1.5549796,-3.63556 -7.704667,-0.001 -1.59001501,3.63786 z m 10.81723,-5.70415 -2.861698,-6.57123 -2.856092,6.57123 z m 8.9101026,-7.24893 h -5.08 v -2.20133 H 24.73323 v 2.20133 h -5.08 v 12.954 h -2.370666 z m 9.186331,-2.159 2.751666,-0.0246 c 3.081377,-0.0275 4.649693,0.0633 5.588,0.32359 1.97696,0.54838 3.300701,1.79686 3.774691,3.56007 0.179286,0.66694 0.202514,2.12987 0.04425,2.78723 -0.321784,1.33659 -1.248829,2.54758 -2.401181,3.13665 -0.339729,0.17367 -0.570341,0.34213 -0.53257,0.39624 l 3.444337,4.93378 h -2.709996 l -3.155988,-4.48733 h -4.390213 v 4.48733 h -2.456238 z m 7.191812,8.38558 c 0.759985,-0.14541 1.555649,-0.54443 1.925444,-0.9656 0.144993,-0.16514 0.361653,-0.51154 0.481466,-0.76978 0.08266,-0.17815 0.549601,-1.50223 -0.05965,-2.73979 -0.471765,-0.95829 -1.292911,-1.46831 -2.673082,-1.66027 -0.360381,-0.0501 -1.509732,-0.0911 -2.554113,-0.0911 h -1.898873 v 6.35 c 1.589389,-0.0477 3.199485,0.10733 4.77881,-0.12342 z m 25.447189,-8.42791 h 1.927901 l 8.613098,10.70315 0.0436,-10.70315 h 2.454071 v 15.15533 h -2.000397 l -8.540607,-10.6135 -0.0436,10.6135 h -2.454061 z m 16.890997,0.0424 2.413,-0.047 v 15.15998 H 75.95565 Z m 9.862472,7.32373 -5.352278,-7.36606 h 2.804748 l 4.06202,5.53904 4.04769,-5.49671 2.65168,0.0289 -5.24722,7.29483 5.67493,7.78933 h -2.85336 l -4.273722,-5.7766 -4.319238,5.7766 h -2.858242 z m 13.4632,-7.36606 h 2.455335 v 13.03866 h 8.04333 v 2.11667 H 99.324565 Z m 28.871335,0 3.28083,0.002 c 1.80446,0.001 3.72043,0.0361 4.25771,0.0777 1.80409,0.13978 2.82621,0.53351 3.72987,1.43679 0.68146,0.68118 0.92771,1.24343 0.98742,2.2546 0.0758,1.28421 -0.26167,2.21017 -1.10812,3.04012 l -0.53355,0.52315 c 0.52238,0.16604 0.93564,0.49954 1.32833,0.87253 0.87432,0.87633 1.143,1.63599 1.07652,3.04373 -0.0809,1.7138 -0.89726,2.81525 -2.54656,3.43604 -1.15584,0.43506 -1.60092,0.46867 -6.20614,0.46867 h -4.26631 z m 9.03443,12.92606 c 0.53537,-0.17702 1.10183,-0.59484 1.32537,-0.97761 0.23478,-0.402 0.2915,-1.41671 0.1063,-1.90166 -0.28117,-0.73623 -1.02015,-1.23467 -2.0841,-1.40571 -0.30269,-0.0487 -1.76001,-0.0888 -3.2385,-0.0891 l -2.68817,-6.4e-4 v 4.58336 l 3.06917,-0.0314 c 2.61854,-0.0268 3.13388,-0.0528 3.50993,-0.17718 z m -1.45677,-6.49277 c 0.80414,-0.11218 1.60799,-0.52212 1.93338,-0.98596 0.19813,-0.28244 0.25551,-0.469 0.28925,-0.94052 0.0694,-0.97062 -0.26633,-1.59834 -1.072,-2.00405 -0.66928,-0.33703 -1.14957,-0.3861 -3.77946,-0.3861 h -2.4935 v 4.40267 l 2.26483,-0.002 c 1.24566,-9.2e-4 2.53154,-0.0389 2.8575,-0.0844 z m -24.89496,8.72105 6.86234,-15.15441 h 2.24028 l 6.86832,15.15441 h -2.60496 l -1.55498,-3.63556 -7.70467,-0.001 -1.59002,3.63786 z m 10.81723,-5.70415 -2.8617,-6.57123 -2.85609,6.57123 z"
       id="path1"
       sodipodi:nodetypes="cccccccccccccccccccccccccccccccccccccccccccccccccccccccccccccccsccsssssscssssssssssscsscssssssssssssssssssccccccccccccccccccccccccccccccccccccccccccccccccscccsccccccccsccssssccscccccccccccccccccccccccccccccccccccccccssscssscccccsscccscccscsscccccsccccccccccccc" /></g></svg>
